<svg width="24" height="23" viewBox="0 0 24 23" fill="none" xmlns="http://www.w3.org/2000/svg">
<path d="M4.35238 1C2.50354 1 1 2.53771 1 4.42857V18.5027C1 20.3936 2.50354 22 4.35238 22H20.0667C21.9155 22 23 20.3936 23 18.5027V4.25272C23 2.36186 21.9155 1 20.0667 1H4.35238ZM4.2 19.75C3.64772 19.75 3.2 19.3023 3.2 18.75V4.25C3.2 3.69772 3.64772 3.25 4.2 3.25H19.8C20.3523 3.25 20.8 3.69772 20.8 4.25V13.2527V18.75C20.8 19.3023 20.3523 19.75 19.8 19.75H4.2Z" fill="#DBDBDB"/>
<path d="M13.5324 11.5552L18.7422 6.72119C18.9179 6.53091 19.0096 6.28615 18.9992 6.03583C18.9888 5.7855 18.8769 5.54804 18.686 5.3709C18.4951 5.19376 18.2392 5.08998 17.9694 5.08031C17.6996 5.07064 17.4358 5.15579 17.2308 5.31874L12.021 10.103L6.77899 5.23917C6.57392 5.07622 6.31013 4.99107 6.04034 5.00074C5.77055 5.01041 5.51463 5.11418 5.32372 5.29132C5.1328 5.46847 5.02096 5.70593 5.01054 5.95625C5.00012 6.20658 5.09189 6.45134 5.2675 6.64162L10.4987 11.5552L5.3747 16.2499C5.26249 16.339 5.17135 16.4488 5.107 16.5722C5.04266 16.6956 5.0065 16.83 5.0008 16.967C4.9951 17.1039 5.01997 17.2405 5.07387 17.3682C5.12776 17.4958 5.20951 17.6117 5.31397 17.7087C5.41844 17.8056 5.54338 17.8815 5.68094 17.9315C5.8185 17.9815 5.96572 18.0045 6.11335 17.9993C6.26098 17.994 6.40584 17.9604 6.53884 17.9007C6.67183 17.841 6.79009 17.7564 6.88619 17.6523L11.9995 12.9079L17.0807 17.6225C17.2857 17.7854 17.5495 17.8706 17.8193 17.8609C18.0891 17.8512 18.345 17.7475 18.5359 17.5703C18.7269 17.3932 18.8387 17.1557 18.8491 16.9054C18.8595 16.6551 18.7678 16.4103 18.5922 16.22L13.5324 11.5552Z" fill="#B5B5B5"/>
</svg>
