<svg width="25" height="120" viewBox="0 0 25 120" fill="none" xmlns="http://www.w3.org/2000/svg">
<g filter="url(#filter0_d_1_2)">
<path d="M12.1476 89.1653L18 64.412C18.1272 63.8739 18.2171 63.2909 18.2697 62.6631C18.3232 62.0353 18.3499 61.3627 18.3499 60.6452C18.3499 59.9277 18.3232 59.255 18.2697 58.6272C18.2171 57.9994 18.1272 57.4165 18 56.8783L12.1476 32.125C11.9143 31.1384 11.6175 30.6452 11.257 30.6452C10.8965 30.6452 9.79057 30.7094 9 31.5C8.5 32 8.58409 32.125 9 34C9.41591 35.875 10.1332 38.6721 10.3664 39.6586L15.3282 60.6452L10.3664 81.6317C10.1332 82.6183 9.31679 85.113 9 86.5C8.68321 87.887 8.44996 88.6427 8.68321 89.6293C8.91646 90.6158 10.6395 90.5 11 90.5C11.3605 90.5 12 90 12.1476 89.1653Z" fill="white"/>
</g>
<defs>
<filter id="filter0_d_1_2" x="-4" y="0" width="33" height="128" filterUnits="userSpaceOnUse" color-interpolation-filters="sRGB">
<feFlood flood-opacity="0" result="BackgroundImageFix"/>
<feColorMatrix in="SourceAlpha" type="matrix" values="0 0 0 0 0 0 0 0 0 0 0 0 0 0 0 0 0 0 127 0" result="hardAlpha"/>
<feOffset dy="4"/>
<feGaussianBlur stdDeviation="2"/>
<feComposite in2="hardAlpha" operator="out"/>
<feColorMatrix type="matrix" values="0 0 0 0 0 0 0 0 0 0 0 0 0 0 0 0 0 0 0.25 0"/>
<feBlend mode="normal" in2="BackgroundImageFix" result="effect1_dropShadow_1_2"/>
<feBlend mode="normal" in="SourceGraphic" in2="effect1_dropShadow_1_2" result="shape"/>
</filter>
</defs>
</svg>
